<svg xmlns="http://www.w3.org/2000/svg" width="900" height="450" viewBox="0 0 900 450">
  <defs>
    <clipPath id="bg-clip">
      <rect width="900" height="450" rx="14"/>
    </clipPath>
    <marker id="arr-yellow" markerWidth="6" markerHeight="6" refX="5" refY="3" orient="auto">
      <path d="M0,0 L6,3 L0,6 Z" fill="#FCB400"/>
    </marker>
    <marker id="arr-cyan" markerWidth="6" markerHeight="6" refX="5" refY="3" orient="auto">
      <path d="M0,0 L6,3 L0,6 Z" fill="#18BFFF"/>
    </marker>
    <marker id="arr-gray" markerWidth="6" markerHeight="6" refX="5" refY="3" orient="auto">
      <path d="M0,0 L6,3 L0,6 Z" fill="#484f58"/>
    </marker>
  </defs>

  <g clip-path="url(#bg-clip)">
    <!-- Background -->
    <rect width="900" height="450" fill="#0d1117"/>
    <!-- Left glow (yellow) -->
    <radialGradient id="glowL" cx="200" cy="220" r="280" gradientUnits="userSpaceOnUse">
      <stop offset="0%" stop-color="#FCB400" stop-opacity="0.05"/>
      <stop offset="100%" stop-color="#FCB400" stop-opacity="0"/>
    </radialGradient>
    <rect width="900" height="450" fill="url(#glowL)"/>
    <!-- Right glow (cyan) -->
    <radialGradient id="glowR" cx="700" cy="220" r="280" gradientUnits="userSpaceOnUse">
      <stop offset="0%" stop-color="#18BFFF" stop-opacity="0.06"/>
      <stop offset="100%" stop-color="#18BFFF" stop-opacity="0"/>
    </radialGradient>
    <rect width="900" height="450" fill="url(#glowR)"/>
    <!-- Top 3-part accent bar -->
    <rect x="0"   y="0" width="300" height="4" fill="#FCB400"/>
    <rect x="300" y="0" width="300" height="4" fill="#18BFFF"/>
    <rect x="600" y="0" width="300" height="4" fill="#F82B60"/>

    <!-- ─── TIER 1: AI CLIENT ───────────────────────────────────── -->
    <text x="450" y="21" font-family="-apple-system, BlinkMacSystemFont, 'Segoe UI', Helvetica, Arial, sans-serif" font-size="10" fill="#484f58" text-anchor="middle" letter-spacing="2" font-weight="600">AI CLIENT</text>
    <rect x="30" y="28" width="840" height="106" rx="10" fill="#161b22" stroke="#30363d" stroke-width="1.5"/>

    <!--
      5 IDE icons, evenly spread across the 840px box.
      Each section is 168px wide, centers at: 114 282 450 618 786.
      Icons are 32×32 (scale=1.333 from 24×24 viewBox), top at y=52.
      Labels at y=103.
    -->

    <!-- Claude Code (D97757) — section center x=114, icon left=98 -->
    <g transform="translate(98, 52) scale(1.333)" fill="#D97757" fill-rule="evenodd">
      <path d="M20.998 10.949H24v3.102h-3v3.028h-1.487V20H18v-2.921h-1.487V20H15v-2.921H9V20H7.488v-2.921H6V20H4.487v-2.921H3V14.05H0V10.95h3V5h17.998v5.949zM6 10.949h1.488V8.102H6v2.847zm10.51 0H18V8.102h-1.49v2.847z"/>
    </g>
    <text x="114" y="103" font-family="-apple-system, BlinkMacSystemFont, 'Segoe UI', Helvetica, Arial, sans-serif" font-size="10" fill="#8b949e" text-anchor="middle">Claude Code</text>

    <!-- Cursor (e6edf3) — section center x=282, icon left=266 -->
    <g transform="translate(266, 52) scale(1.333)" fill="#e6edf3" fill-rule="evenodd">
      <path d="M22.106 5.68L12.5.135a.998.998 0 00-.998 0L1.893 5.68a.84.84 0 00-.419.726v11.186c0 .3.16.577.42.727l9.607 5.547a.999.999 0 00.998 0l9.608-5.547a.84.84 0 00.42-.727V6.407a.84.84 0 00-.42-.726zm-.603 1.176L12.228 22.92c-.063.108-.228.064-.228-.061V12.34a.59.59 0 00-.295-.51l-9.11-5.26c-.107-.062-.063-.228.062-.228h18.55c.264 0 .428.286.296.514z"/>
    </g>
    <text x="282" y="103" font-family="-apple-system, BlinkMacSystemFont, 'Segoe UI', Helvetica, Arial, sans-serif" font-size="10" fill="#8b949e" text-anchor="middle">Cursor</text>

    <!-- Windsurf (e6edf3) — section center x=450, icon left=434 -->
    <g transform="translate(434, 52) scale(1.333)" fill="#e6edf3" fill-rule="evenodd">
      <path d="M23.78 5.004h-.228a2.187 2.187 0 00-2.18 2.196v4.912c0 .98-.804 1.775-1.76 1.775a1.818 1.818 0 01-1.472-.773L13.168 5.95a2.197 2.197 0 00-1.81-.95c-1.134 0-2.154.972-2.154 2.173v4.94c0 .98-.797 1.775-1.76 1.775-.57 0-1.136-.289-1.472-.773L.408 5.098C.282 4.918 0 5.007 0 5.228v4.284c0 .216.066.426.188.604l5.475 7.889c.324.466.8.812 1.351.938 1.377.316 2.645-.754 2.645-2.117V11.89c0-.98.787-1.775 1.76-1.775h.002c.586 0 1.135.288 1.472.773l4.972 7.163a2.15 2.15 0 001.81.95c1.158 0 2.151-.973 2.151-2.173v-4.939c0-.98.787-1.775 1.76-1.775h.194c.122 0 .22-.1.22-.222V5.225a.221.221 0 00-.22-.222z"/>
    </g>
    <text x="450" y="103" font-family="-apple-system, BlinkMacSystemFont, 'Segoe UI', Helvetica, Arial, sans-serif" font-size="10" fill="#8b949e" text-anchor="middle">Windsurf</text>

    <!-- Cline (e6edf3) — section center x=618, icon left=602 -->
    <g transform="translate(602, 52) scale(1.333)" fill="#e6edf3" fill-rule="evenodd">
      <path d="M17.035 3.991c2.75 0 4.98 2.24 4.98 5.003v1.667l1.45 2.896a1.01 1.01 0 01-.002.909l-1.448 2.864v1.668c0 2.762-2.23 5.002-4.98 5.002H7.074c-2.751 0-4.98-2.24-4.98-5.002V17.33l-1.48-2.855a1.01 1.01 0 01-.003-.927l1.482-2.887V8.994c0-2.763 2.23-5.003 4.98-5.003h9.962zM8.265 9.6a2.274 2.274 0 00-2.274 2.274v4.042a2.274 2.274 0 004.547 0v-4.042A2.274 2.274 0 008.265 9.6zm7.326 0a2.274 2.274 0 00-2.274 2.274v4.042a2.274 2.274 0 104.548 0v-4.042A2.274 2.274 0 0015.59 9.6z"/>
      <path d="M12.054 5.558a2.779 2.779 0 100-5.558 2.779 2.779 0 000 5.558z"/>
    </g>
    <text x="618" y="103" font-family="-apple-system, BlinkMacSystemFont, 'Segoe UI', Helvetica, Arial, sans-serif" font-size="10" fill="#8b949e" text-anchor="middle">Cline</text>

    <!-- Codex (e6edf3, actual logo) — section center x=786, icon left=770 -->
    <g transform="translate(770, 52) scale(1.333)" fill="#e6edf3" fill-rule="evenodd">
      <path clip-rule="evenodd" d="M8.086.457a6.105 6.105 0 013.046-.415c1.333.153 2.521.72 3.564 1.7a.117.117 0 00.107.029c1.408-.346 2.762-.224 4.061.366l.063.03.154.076c1.357.703 2.33 1.77 2.918 3.198.278.679.418 1.388.421 2.126a5.655 5.655 0 01-.18 1.631.167.167 0 00.04.155 5.982 5.982 0 011.578 2.891c.385 1.901-.01 3.615-1.183 5.14l-.182.22a6.063 6.063 0 01-2.934 1.851.162.162 0 00-.108.102c-.255.736-.511 1.364-.987 1.992-1.199 1.582-2.962 2.462-4.948 2.451-1.583-.008-2.986-.587-4.21-1.736a.145.145 0 00-.14-.032c-.518.167-1.04.191-1.604.185a5.924 5.924 0 01-2.595-.622 6.058 6.058 0 01-2.146-1.781c-.203-.269-.404-.522-.551-.821a7.74 7.74 0 01-.495-1.283 6.11 6.11 0 01-.017-3.064.166.166 0 00.008-.074.115.115 0 00-.037-.064 5.958 5.958 0 01-1.38-2.202 5.196 5.196 0 01-.333-1.589 6.915 6.915 0 01.188-2.132c.45-1.484 1.309-2.648 2.577-3.493.282-.188.55-.334.802-.438.286-.12.573-.22.861-.304a.129.129 0 00.087-.087A6.016 6.016 0 015.635 2.31C6.315 1.464 7.132.846 8.086.457zm-.804 7.85a.848.848 0 00-1.473.842l1.694 2.965-1.688 2.848a.849.849 0 001.46.864l1.94-3.272a.849.849 0 00.007-.854l-1.94-3.393zm5.446 6.24a.849.849 0 000 1.695h4.848a.849.849 0 000-1.696h-4.848z"/>
    </g>
    <text x="786" y="103" font-family="-apple-system, BlinkMacSystemFont, 'Segoe UI', Helvetica, Arial, sans-serif" font-size="10" fill="#8b949e" text-anchor="middle">Codex</text>

    <!-- ─── ARROWS: AI Client → MCPs ──────────────────────────── -->
    <!-- Left arrow (yellow → Official MCP) straight down at x=225 -->
    <line x1="225" y1="134" x2="225" y2="182" stroke="#FCB400" stroke-width="1.5" stroke-dasharray="5,3" marker-end="url(#arr-yellow)"/>
    <text x="238" y="162" font-family="-apple-system, BlinkMacSystemFont, 'Segoe UI', Helvetica, Arial, sans-serif" font-size="10.5" fill="#FCB400" opacity="0.85">records · CRUD</text>

    <!-- Right arrow (cyan → our MCP) straight down at x=675 -->
    <line x1="675" y1="134" x2="675" y2="182" stroke="#18BFFF" stroke-width="1.5" stroke-dasharray="5,3" marker-end="url(#arr-cyan)"/>
    <text x="662" y="162" font-family="-apple-system, BlinkMacSystemFont, 'Segoe UI', Helvetica, Arial, sans-serif" font-size="10.5" fill="#18BFFF" text-anchor="end" opacity="0.85">schema · views · formulas</text>

    <!-- ─── TIER 2a: Official MCP (yellow) ────────────────────── -->
    <rect x="30" y="186" width="390" height="110" rx="10" fill="#100c00" stroke="#FCB400" stroke-width="1.5" stroke-opacity="0.55"/>
    <rect x="368" y="192" width="46" height="18" rx="9" fill="#1e1600" stroke="#FCB400" stroke-width="1" stroke-opacity="0.5"/>
    <text x="391" y="205" font-family="-apple-system, BlinkMacSystemFont, 'Segoe UI', Helvetica, Arial, sans-serif" font-size="9.5" fill="#FCB400" text-anchor="middle" opacity="0.8">remote</text>
    <text x="225" y="223" font-family="-apple-system, BlinkMacSystemFont, 'Segoe UI', Helvetica, Arial, sans-serif" font-size="14" font-weight="600" fill="#e6edf3" text-anchor="middle">Airtable Official MCP</text>
    <text x="225" y="243" font-family="-apple-system, BlinkMacSystemFont, 'Segoe UI', Helvetica, Arial, sans-serif" font-size="11.5" fill="#8b949e" text-anchor="middle">REST API · CRUD records · basic schema</text>
    <rect x="75" y="257" width="300" height="22" rx="11" fill="#1e1600" stroke="#FCB400" stroke-width="1" stroke-opacity="0.4"/>
    <text x="225" y="272" font-family="-apple-system, BlinkMacSystemFont, 'Segoe UI', Helvetica, Arial, sans-serif" font-size="10" fill="#FCB400" text-anchor="middle" opacity="0.7">⚠ filterByFormula fails on lookup fields</text>

    <!-- ─── TIER 2b: airtable-user-mcp (cyan) ─────────────────── -->
    <rect x="480" y="186" width="390" height="110" rx="10" fill="#001018" stroke="#18BFFF" stroke-width="1.5" stroke-opacity="0.65"/>
    <rect x="488" y="192" width="38" height="18" rx="9" fill="#001a24" stroke="#18BFFF" stroke-width="1" stroke-opacity="0.55"/>
    <text x="507" y="205" font-family="-apple-system, BlinkMacSystemFont, 'Segoe UI', Helvetica, Arial, sans-serif" font-size="9.5" fill="#18BFFF" text-anchor="middle" opacity="0.9">local</text>
    <rect x="532" y="192" width="58" height="18" rx="9" fill="#001a24" stroke="#18BFFF" stroke-width="1" stroke-opacity="0.55"/>
    <text x="561" y="205" font-family="-apple-system, BlinkMacSystemFont, 'Segoe UI', Helvetica, Arial, sans-serif" font-size="9.5" fill="#18BFFF" text-anchor="middle">66 tools</text>
    <text x="675" y="223" font-family="-apple-system, BlinkMacSystemFont, 'Segoe UI', Helvetica, Arial, sans-serif" font-size="14" font-weight="600" fill="#e6edf3" text-anchor="middle">airtable-user-mcp</text>
    <text x="675" y="243" font-family="-apple-system, BlinkMacSystemFont, 'Segoe UI', Helvetica, Arial, sans-serif" font-size="11.5" fill="#8b949e" text-anchor="middle">internal API · schema · views · formulas · search</text>
    <!-- Capability pills -->
    <rect x="501" y="257" width="54" height="22" rx="11" fill="#001a24" stroke="#18BFFF" stroke-width="1" stroke-opacity="0.5"/>
    <text x="528" y="272" font-family="-apple-system, BlinkMacSystemFont, 'Segoe UI', Helvetica, Arial, sans-serif" font-size="9.5" fill="#18BFFF" text-anchor="middle">Schema</text>
    <rect x="562" y="257" width="46" height="22" rx="11" fill="#001a24" stroke="#18BFFF" stroke-width="1" stroke-opacity="0.5"/>
    <text x="585" y="272" font-family="-apple-system, BlinkMacSystemFont, 'Segoe UI', Helvetica, Arial, sans-serif" font-size="9.5" fill="#18BFFF" text-anchor="middle">Views</text>
    <rect x="615" y="257" width="62" height="22" rx="11" fill="#001a24" stroke="#18BFFF" stroke-width="1" stroke-opacity="0.5"/>
    <text x="646" y="272" font-family="-apple-system, BlinkMacSystemFont, 'Segoe UI', Helvetica, Arial, sans-serif" font-size="9.5" fill="#18BFFF" text-anchor="middle">Formulas</text>
    <rect x="684" y="257" width="52" height="22" rx="11" fill="#001a24" stroke="#18BFFF" stroke-width="1" stroke-opacity="0.5"/>
    <text x="710" y="272" font-family="-apple-system, BlinkMacSystemFont, 'Segoe UI', Helvetica, Arial, sans-serif" font-size="9.5" fill="#18BFFF" text-anchor="middle">Search</text>
    <rect x="743" y="257" width="38" height="22" rx="11" fill="#001a24" stroke="#18BFFF" stroke-width="1" stroke-opacity="0.5"/>
    <text x="762" y="272" font-family="-apple-system, BlinkMacSystemFont, 'Segoe UI', Helvetica, Arial, sans-serif" font-size="9.5" fill="#18BFFF" text-anchor="middle">LSP</text>

    <!-- ─── ARROWS: MCPs → Airtable ──────────────────────────── -->
    <line x1="225" y1="296" x2="360" y2="346" stroke="#484f58" stroke-width="1.5" stroke-dasharray="5,3" marker-end="url(#arr-gray)"/>
    <line x1="675" y1="296" x2="540" y2="346" stroke="#484f58" stroke-width="1.5" stroke-dasharray="5,3" marker-end="url(#arr-gray)"/>
    <text x="85" y="332" font-family="-apple-system, BlinkMacSystemFont, 'Segoe UI', Helvetica, Arial, sans-serif" font-size="10" fill="#484f58">REST API (remote)</text>
    <text x="815" y="332" font-family="-apple-system, BlinkMacSystemFont, 'Segoe UI', Helvetica, Arial, sans-serif" font-size="10" fill="#484f58" text-anchor="end">internal API (local)</text>

    <!-- ─── TIER 3: Airtable ─────────────────────────────────── -->
    <text x="450" y="340" font-family="-apple-system, BlinkMacSystemFont, 'Segoe UI', Helvetica, Arial, sans-serif" font-size="10" fill="#484f58" text-anchor="middle" letter-spacing="2" font-weight="600">AIRTABLE</text>
    <rect x="210" y="348" width="480" height="82" rx="10" fill="#161b22" stroke="#30363d" stroke-width="1.5"/>
    <!-- Airtable logo (~34×28px, scale=0.024) -->
    <g transform="translate(234, 372) scale(0.024)">
      <path d="m626 15.8l-522.7 216.5c-29 12-28.7 53.4 0.5 65l524.9 208.3c11.4 4.5 23.2 8 35.2 10.3 12 2.3 24.3 3.5 36.5 3.5 12.3 0 24.5-1.2 36.6-3.5 12-2.3 23.8-5.8 35.2-10.3l524.9-208.3c29.2-11.6 29.5-53 0.5-65l-522.7-216.5c-11.8-4.9-24-8.6-36.5-11.1-12.5-2.5-25.2-3.8-38-3.8-12.7 0-25.4 1.3-37.9 3.8-12.5 2.5-24.7 6.2-36.5 11.1z" fill="#FCB400"/>
      <path d="m747 619.4v520.5c0 24.8 25 41.7 47.9 32.6l584.9-227.3c3.2-1.2 6.2-3 9-5.2 2.7-2.2 5.1-4.8 7-7.6 2-2.9 3.5-6.1 4.5-9.4 1.1-3.4 1.6-6.9 1.6-10.3v-520.6c0-24.7-25-41.7-47.9-32.5l-584.9 227.2c-3.2 1.3-6.3 3.1-9 5.3-2.7 2.1-5.1 4.7-7 7.6-2 2.9-3.5 6.1-4.5 9.4-1.1 3.3-1.6 6.8-1.6 10.3z" fill="#18BFFF"/>
      <path d="m610.4 646.3l-173.5 83.8-17.6 8.6-366.4 175.7c-23.2 11.2-52.9-5.7-52.9-31.5v-488.6c0-9.3 4.8-17.4 11.2-23.5q1-0.9 2-1.8 1.1-1 2.2-1.8 1.1-0.8 2.3-1.6 1.2-0.7 2.4-1.4c8.7-5.3 21.2-6.7 31.8-2.5l555.6 220.4c28.3 11.2 30.5 50.8 2.9 64.2z" fill="#F82B60"/>
      <path d="m610.4 646.3l-173.5 83.8-425.7-359.3q1-0.9 2-1.9 1.1-0.9 2.2-1.7 1.1-0.8 2.3-1.6 1.2-0.7 2.4-1.4c8.7-5.3 21.2-6.7 31.8-2.5l555.6 220.4c28.3 11.2 30.5 50.8 2.9 64.2z" fill="#000000" opacity="0.3"/>
    </g>
    <text x="450" y="379" font-family="-apple-system, BlinkMacSystemFont, 'Segoe UI', Helvetica, Arial, sans-serif" font-size="15" font-weight="600" fill="#e6edf3" text-anchor="middle">Airtable</text>
    <text x="450" y="400" font-family="-apple-system, BlinkMacSystemFont, 'Segoe UI', Helvetica, Arial, sans-serif" font-size="11.5" fill="#8b949e" text-anchor="middle">your bases · tables · views · automations</text>
    <!-- 3-colour bottom accent -->
    <rect x="326" y="419" width="80" height="3" rx="1.5" fill="#FCB400"/>
    <rect x="410" y="419" width="80" height="3" rx="1.5" fill="#18BFFF"/>
    <rect x="494" y="419" width="80" height="3" rx="1.5" fill="#F82B60"/>
  </g>
</svg>
