<svg xmlns="http://www.w3.org/2000/svg" width="900" height="210" viewBox="0 0 900 210">
  <defs>
    <clipPath id="bg-clip">
      <rect width="900" height="210" rx="14"/>
    </clipPath>
    <linearGradient id="titleGrad" x1="102" y1="0" x2="440" y2="0" gradientUnits="userSpaceOnUse">
      <stop offset="0%"   stop-color="#FCB400"/>
      <stop offset="50%"  stop-color="#18BFFF"/>
      <stop offset="100%" stop-color="#F82B60"/>
    </linearGradient>
  </defs>

  <g clip-path="url(#bg-clip)">
    <!-- Background -->
    <rect width="900" height="210" fill="#ffffff"/>

    <!-- Subtle left glow (yellow) -->
    <radialGradient id="glowY" cx="160" cy="56" r="220" gradientUnits="userSpaceOnUse">
      <stop offset="0%"  stop-color="#FCB400" stop-opacity="0.07"/>
      <stop offset="100%" stop-color="#FCB400" stop-opacity="0"/>
    </radialGradient>
    <rect width="900" height="210" fill="url(#glowY)"/>

    <!-- Subtle right glow (cyan) -->
    <radialGradient id="glowC" cx="740" cy="56" r="220" gradientUnits="userSpaceOnUse">
      <stop offset="0%"  stop-color="#18BFFF" stop-opacity="0.07"/>
      <stop offset="100%" stop-color="#18BFFF" stop-opacity="0"/>
    </radialGradient>
    <rect width="900" height="210" fill="url(#glowC)"/>

    <!-- Top 3-part accent bar -->
    <rect x="0"   y="0" width="300" height="5" fill="#FCB400"/>
    <rect x="300" y="0" width="300" height="5" fill="#18BFFF"/>
    <rect x="600" y="0" width="300" height="5" fill="#F82B60"/>

    <!-- ═══ LEFT PANEL ═══ -->

    <!-- Airtable logo -->
    <g transform="translate(18, 24) scale(0.05)">
      <path d="m626 15.8l-522.7 216.5c-29 12-28.7 53.4 0.5 65l524.9 208.3c11.4 4.5 23.2 8 35.2 10.3 12 2.3 24.3 3.5 36.5 3.5 12.3 0 24.5-1.2 36.6-3.5 12-2.3 23.8-5.8 35.2-10.3l524.9-208.3c29.2-11.6 29.5-53 0.5-65l-522.7-216.5c-11.8-4.9-24-8.6-36.5-11.1-12.5-2.5-25.2-3.8-38-3.8-12.7 0-25.4 1.3-37.9 3.8-12.5 2.5-24.7 6.2-36.5 11.1z" fill="#FCB400"/>
      <path d="m747 619.4v520.5c0 24.8 25 41.7 47.9 32.6l584.9-227.3c3.2-1.2 6.2-3 9-5.2 2.7-2.2 5.1-4.8 7-7.6 2-2.9 3.5-6.1 4.5-9.4 1.1-3.4 1.6-6.9 1.6-10.3v-520.6c0-24.7-25-41.7-47.9-32.5l-584.9 227.2c-3.2 1.3-6.3 3.1-9 5.3-2.7 2.1-5.1 4.7-7 7.6-2 2.9-3.5 6.1-4.5 9.4-1.1 3.3-1.6 6.8-1.6 10.3z" fill="#18BFFF"/>
      <path d="m610.4 646.3l-173.5 83.8-17.6 8.6-366.4 175.7c-23.2 11.2-52.9-5.7-52.9-31.5v-488.6c0-9.3 4.8-17.4 11.2-23.5q1-0.9 2-1.8 1.1-1 2.2-1.8 1.1-0.8 2.3-1.6 1.2-0.7 2.4-1.4c8.7-5.3 21.2-6.7 31.8-2.5l555.6 220.4c28.3 11.2 30.5 50.8 2.9 64.2z" fill="#F82B60"/>
      <path d="m610.4 646.3l-173.5 83.8-425.7-359.3q1-0.9 2-1.9 1.1-0.9 2.2-1.7 1.1-0.8 2.3-1.6 1.2-0.7 2.4-1.4c8.7-5.3 21.2-6.7 31.8-2.5l555.6 220.4c28.3 11.2 30.5 50.8 2.9 64.2z" fill="#000000" opacity="0.15"/>
    </g>

    <!-- Title -->
    <text x="102" y="60" font-family="ui-monospace, 'Cascadia Code', 'Fira Code', Consolas, monospace" font-size="30" font-weight="700" fill="url(#titleGrad)" letter-spacing="-0.4">airtable-user-mcp</text>

    <!-- Subtitle -->
    <text x="102" y="83" font-family="-apple-system, BlinkMacSystemFont, 'Segoe UI', Helvetica, Arial, sans-serif" font-size="12.5" fill="#6e7781">Community add-on · uses Airtable&#x27;s internal API</text>

    <!-- Stats line -->
    <text x="102" y="104" font-family="-apple-system, BlinkMacSystemFont, 'Segoe UI', Helvetica, Arial, sans-serif" font-size="11.5">
      <tspan font-weight="700" fill="#d08000">66 tools</tspan>
      <tspan fill="#8c959f">  ·  </tspan>
      <tspan font-weight="600" fill="#0090c0">13 categories</tspan>
      <tspan fill="#8c959f">  ·  </tspan>
      <tspan fill="#6e7781">multi-editor LSP</tspan>
    </text>

    <!-- ═══ VERTICAL DIVIDER ═══ -->
    <line x1="462" y1="14" x2="462" y2="115" stroke="#d0d7de" stroke-width="1"/>

    <!-- ═══ RIGHT PANEL: 3 file-type icons ═══ -->

    <!-- Formula icon (.formula) -->
    <g transform="translate(504, 22) scale(1.75)" fill="none" stroke-linecap="round" stroke-linejoin="round">
      <path d="M2 9 A7 7 0 0 1 9 2 H23 A7 7 0 0 1 30 9" stroke="#FCB400" stroke-width="2.1"/>
      <path d="M30 9 V23 A7 7 0 0 1 23 30 H16" stroke="#18BFFF" stroke-width="2.1"/>
      <path d="M16 30 H9 A7 7 0 0 1 2 23 V9" stroke="#F82B60" stroke-width="2.1"/>
      <g transform="translate(6 6) scale(0.833)" stroke="#F82B60" stroke-width="1.7">
        <path d="M8 21s-4-3-4-9 4-9 4-9"/>
        <path d="M16 3s4 3 4 9-4 9-4 9"/>
        <line x1="15" x2="9" y1="9" y2="15"/>
        <line x1="9" x2="15" y1="9" y2="15"/>
      </g>
    </g>
    <text x="532" y="91" font-family="ui-monospace, Consolas, monospace" font-size="10.5" fill="#57606a" text-anchor="middle">.formula</text>
    <text x="532" y="106" font-family="-apple-system, BlinkMacSystemFont, 'Segoe UI', Helvetica, Arial, sans-serif" font-size="9.5" fill="#6e7781" text-anchor="middle">Formula Editor</text>

    <!-- Script icon (.ats) -->
    <g transform="translate(644, 22) scale(1.75)" fill="none" stroke-linecap="round" stroke-linejoin="round">
      <path d="M2 9 A7 7 0 0 1 9 2 H23 A7 7 0 0 1 30 9" stroke="#FCB400" stroke-width="2.1"/>
      <path d="M30 9 V23 A7 7 0 0 1 23 30 H16" stroke="#18BFFF" stroke-width="2.1"/>
      <path d="M16 30 H9 A7 7 0 0 1 2 23 V9" stroke="#F82B60" stroke-width="2.1"/>
      <g transform="translate(6 6) scale(0.833)" stroke="#18BFFF" stroke-width="1.7">
        <path d="m18 16 4-4-4-4"/>
        <path d="m6 8-4 4 4 4"/>
        <path d="m14.5 4-5 16"/>
      </g>
    </g>
    <text x="672" y="91" font-family="ui-monospace, Consolas, monospace" font-size="10.5" fill="#57606a" text-anchor="middle">.ats</text>
    <text x="672" y="106" font-family="-apple-system, BlinkMacSystemFont, 'Segoe UI', Helvetica, Arial, sans-serif" font-size="9.5" fill="#6e7781" text-anchor="middle">Script Editor</text>

    <!-- Automation icon (.ata) -->
    <g transform="translate(784, 22) scale(1.75)" fill="none" stroke-linecap="round" stroke-linejoin="round">
      <path d="M2 9 A7 7 0 0 1 9 2 H23 A7 7 0 0 1 30 9" stroke="#FCB400" stroke-width="2.1"/>
      <path d="M30 9 V23 A7 7 0 0 1 23 30 H16" stroke="#18BFFF" stroke-width="2.1"/>
      <path d="M16 30 H9 A7 7 0 0 1 2 23 V9" stroke="#F82B60" stroke-width="2.1"/>
      <g transform="translate(6 6) scale(0.833)" fill="#FCB400" stroke="#FCB400" stroke-width="0.5" stroke-linecap="round" stroke-linejoin="round">
        <path d="M4 14a1 1 0 0 1-.78-1.63l9.9-10.2a.5.5 0 0 1 .86.46l-1.92 6.02A1 1 0 0 0 13 10h7a1 1 0 0 1 .78 1.63l-9.9 10.2a.5.5 0 0 1-.86-.46l1.92-6.02A1 1 0 0 0 11 14z"/>
      </g>
    </g>
    <text x="812" y="91" font-family="ui-monospace, Consolas, monospace" font-size="10.5" fill="#57606a" text-anchor="middle">.ata</text>
    <text x="812" y="106" font-family="-apple-system, BlinkMacSystemFont, 'Segoe UI', Helvetica, Arial, sans-serif" font-size="9.5" fill="#6e7781" text-anchor="middle">Automation Editor</text>

    <!-- ═══ FULL-WIDTH HORIZONTAL DIVIDER ═══ -->
    <line x1="18" y1="117" x2="882" y2="117" stroke="#d0d7de" stroke-width="1"/>

    <!-- ═══ BOTTOM: 3 capability cards ═══ -->

    <!-- Card 1: MCP SERVER (yellow) -->
    <rect x="18" y="124" width="280" height="72" rx="8" fill="#fffdf5" stroke="#FCB400" stroke-width="1.2" stroke-opacity="0.6"/>
    <rect x="18" y="133" width="3" height="54" rx="1.5" fill="#FCB400"/>
    <rect x="30" y="132" width="88" height="14" rx="5" fill="#FCB400" fill-opacity="0.12" stroke="#FCB400" stroke-width="0.7" stroke-opacity="0.5"/>
    <text x="74" y="143" text-anchor="middle" font-family="-apple-system, BlinkMacSystemFont, 'Segoe UI', Helvetica, Arial, sans-serif" font-size="8" font-weight="700" fill="#d08000" letter-spacing="1.4">MCP SERVER</text>
    <text x="30" y="162" font-family="-apple-system, BlinkMacSystemFont, 'Segoe UI', Helvetica, Arial, sans-serif" font-size="11"><tspan fill="#d08000" font-weight="700">66 tools</tspan><tspan fill="#8c959f">  ·  </tspan><tspan fill="#0090c0" font-weight="600">gui interface</tspan><tspan fill="#8c959f">  ·  </tspan><tspan fill="#c0184a" font-weight="600">multi-editor LSP</tspan></text>
    <text x="30" y="179" font-family="-apple-system, BlinkMacSystemFont, 'Segoe UI', Helvetica, Arial, sans-serif" font-size="10"><tspan fill="#57606a">schema</tspan><tspan fill="#8c959f"> · </tspan><tspan fill="#57606a">records</tspan><tspan fill="#8c959f"> · </tspan><tspan fill="#57606a">views</tspan><tspan fill="#8c959f"> · </tspan><tspan fill="#57606a">formulas</tspan><tspan fill="#8c959f"> · </tspan><tspan fill="#57606a">extensions</tspan></text>

    <!-- Card 2: IDE EDITING (cyan) -->
    <rect x="306" y="124" width="280" height="72" rx="8" fill="#f0faff" stroke="#18BFFF" stroke-width="1.2" stroke-opacity="0.6"/>
    <rect x="306" y="133" width="3" height="54" rx="1.5" fill="#18BFFF"/>
    <rect x="318" y="132" width="96" height="14" rx="5" fill="#18BFFF" fill-opacity="0.1" stroke="#18BFFF" stroke-width="0.7" stroke-opacity="0.5"/>
    <text x="366" y="143" text-anchor="middle" font-family="-apple-system, BlinkMacSystemFont, 'Segoe UI', Helvetica, Arial, sans-serif" font-size="8" font-weight="700" fill="#0090c0" letter-spacing="1.4">IDE EDITING</text>
    <text x="318" y="162" font-family="-apple-system, BlinkMacSystemFont, 'Segoe UI', Helvetica, Arial, sans-serif" font-size="11"><tspan fill="#0090c0" font-weight="600">LSP-native</tspan><tspan fill="#8c959f">  ·  </tspan><tspan fill="#0090c0" font-weight="600">multi-editor</tspan><tspan fill="#8c959f">  ·  </tspan><tspan fill="#57606a">3 file types</tspan></text>
    <text x="318" y="179" font-family="-apple-system, BlinkMacSystemFont, 'Segoe UI', Helvetica, Arial, sans-serif" font-size="10"><tspan fill="#57606a">completions</tspan><tspan fill="#8c959f"> · </tspan><tspan fill="#57606a">hover</tspan><tspan fill="#8c959f"> · </tspan><tspan fill="#57606a">diagnostics</tspan><tspan fill="#8c959f"> · </tspan><tspan fill="#57606a">beautify</tspan><tspan fill="#8c959f"> · </tspan><tspan fill="#57606a">minify</tspan></text>

    <!-- Card 3: PLATFORM (red) -->
    <rect x="594" y="124" width="286" height="72" rx="8" fill="#fff5f7" stroke="#F82B60" stroke-width="1.2" stroke-opacity="0.6"/>
    <rect x="594" y="133" width="3" height="54" rx="1.5" fill="#F82B60"/>
    <rect x="606" y="132" width="76" height="14" rx="5" fill="#F82B60" fill-opacity="0.1" stroke="#F82B60" stroke-width="0.7" stroke-opacity="0.5"/>
    <text x="644" y="143" text-anchor="middle" font-family="-apple-system, BlinkMacSystemFont, 'Segoe UI', Helvetica, Arial, sans-serif" font-size="8" font-weight="700" fill="#c0184a" letter-spacing="1.4">PLATFORM</text>
    <text x="606" y="162" font-family="-apple-system, BlinkMacSystemFont, 'Segoe UI', Helvetica, Arial, sans-serif" font-size="11"><tspan fill="#c0184a" font-weight="600">daemon</tspan><tspan fill="#8c959f">  ·  </tspan><tspan fill="#c0184a" font-weight="600">tunnel</tspan><tspan fill="#8c959f">  ·  </tspan><tspan fill="#c0184a" font-weight="600">OS keychain</tspan></text>
    <text x="606" y="179" font-family="-apple-system, BlinkMacSystemFont, 'Segoe UI', Helvetica, Arial, sans-serif" font-size="10"><tspan fill="#57606a">AI skills</tspan><tspan fill="#8c959f"> · </tspan><tspan fill="#57606a">auto-setup</tspan><tspan fill="#8c959f"> · </tspan><tspan fill="#57606a">multi-IDE</tspan><tspan fill="#8c959f"> · </tspan><tspan fill="#57606a">LSP server</tspan></text>
  </g>
</svg>
