<svg xmlns="http://www.w3.org/2000/svg" viewBox="0 0 32 32" width="32" height="32">
  <g fill="none" stroke-width="3" stroke-linecap="round" stroke-linejoin="round">
    <path d="M2 9 A7 7 0 0 1 9 2 H23 A7 7 0 0 1 30 9" stroke="#FCB400"/>
    <path d="M30 9 V23 A7 7 0 0 1 23 30 H16" stroke="#18BFFF"/>
    <path d="M16 30 H9 A7 7 0 0 1 2 23 V9" stroke="#F82B60"/>
  </g>
  <g transform="translate(6 6) scale(0.833)" fill="#FCB400" stroke="#FCB400" stroke-width="1" stroke-linecap="round" stroke-linejoin="round">
    <path d="M4 14a1 1 0 0 1-.78-1.63l9.9-10.2a.5.5 0 0 1 .86.46l-1.92 6.02A1 1 0 0 0 13 10h7a1 1 0 0 1 .78 1.63l-9.9 10.2a.5.5 0 0 1-.86-.46l1.92-6.02A1 1 0 0 0 11 14z" />
  </g>
</svg>
