<svg xmlns="http://www.w3.org/2000/svg" width="32" height="32" viewBox="0 0 32 32"><g fill="none" stroke-linecap="round" stroke-linejoin="round" stroke-width="3"><path stroke="#FCB400" d="M2 9 A7 7 0 0 1 9 2 H23 A7 7 0 0 1 30 9"/><path stroke="#18BFFF" d="M30 9 V23 A7 7 0 0 1 23 30 H16"/><path stroke="#F82B60" d="M16 30 H9 A7 7 0 0 1 2 23 V9"/></g><g fill="#FCB400" stroke="#FCB400" stroke-linecap="round" stroke-linejoin="round" stroke-width="1"><path d="M4 14a1 1 0 0 1-.78-1.63l9.9-10.2a.5.5 0 0 1 .86.46l-1.92 6.02A1 1 0 0 0 13 10h7a1 1 0 0 1 .78 1.63l-9.9 10.2a.5.5 0 0 1-.86-.46l1.92-6.02A1 1 0 0 0 11 14z" transform="translate(6 6) scale(0.833)"/></g></svg>